# xmcd
# 
# Track frame offsets:
#     182
#     22037
#     34570
#     55545
#     81990
#     110635
#     135415
#     154415
#     166577
#     190505
# 
# Disc length: 2734
# 
# Revision: 5
# Processed by: cddbd v1.5.2PL0 Copyright (c) Steve Scherf et al.
# Submitted via: fre:ac v1.0.17
# 
DISCID=720aac0a
DTITLE=Michel Petrucciani - Marvellous
DYEAR=1994
DGENRE=Jazz
TTITLE0=Manhattan
TTITLE1=Charlie Brown
TTITLE2=Even mice dance
TTITLE3=Why
TTITLE4=Hidden joy
TTITLE5=Shooting stars
TTITLE6=You are my waltz
TTITLE7=Dumb breaks
TTITLE8=92's last
TTITLE9=Besame mucho
EXTD=YEAR: 1994
EXTT0=
EXTT1=
EXTT2=
EXTT3=
EXTT4=
EXTT5=
EXTT6=
EXTT7=
EXTT8=
EXTT9=
PLAYORDER=
